<?xml version="1.0" encoding="UTF-8"?>
<!DOCTYPE svg PUBLIC "-//W3C//DTD SVG 1.1//EN" "http://www.w3.org/Graphics/SVG/1.1/DTD/svg11.dtd">
<svg version="1.1" xmlns="http://www.w3.org/2000/svg" xmlns:xlink="http://www.w3.org/1999/xlink" x="0" y="0" width="1023" height="450" viewBox="0, 0, 1023, 450">
  <g id="Layer_1">
    <g>
      <g>
        <g>
          <path d="M637.25,205 C588.373,205 548.75,165.601 548.75,117 C548.75,68.399 588.373,29 637.25,29 C686.127,29 725.75,68.399 725.75,117 C725.75,165.601 686.127,205 637.25,205 z" fill="#BAD174"/>
          <path d="M637.25,205 C588.373,205 548.75,165.601 548.75,117 C548.75,68.399 588.373,29 637.25,29 C686.127,29 725.75,68.399 725.75,117 C725.75,165.601 686.127,205 637.25,205 z" fill-opacity="0" stroke="#BAD174" stroke-width="1"/>
        </g>
        <text transform="matrix(1, 0, 0, 1, 636.75, 121.5)">
          <tspan x="-41.12" y="14" font-family="HelveticaNeue-Medium" font-size="40" fill="#000000">PHP</tspan>
        </text>
      </g>
      <g>
        <g>
          <path d="M144,205 C95.123,205 55.5,165.601 55.5,117 C55.5,68.399 95.123,29 144,29 C192.877,29 232.5,68.399 232.5,117 C232.5,165.601 192.877,205 144,205 z" fill="#1BBC9B"/>
          <path d="M144,205 C95.123,205 55.5,165.601 55.5,117 C55.5,68.399 95.123,29 144,29 C192.877,29 232.5,68.399 232.5,117 C232.5,165.601 192.877,205 144,205 z" fill-opacity="0" stroke="#1BBC9B" stroke-width="1"/>
        </g>
        <g>
          <text transform="matrix(1, 0, 0, 1, 143.5, 123.5)">
            <tspan x="-51.48" y="9.5" font-family="HelveticaNeue" font-size="40" fill="#FFFFFF">CSS3</tspan>
          </text>
          <path d="M115.22,113.04 L119.02,113.04 Q118.7,110.76 117.66,109.02 Q116.62,107.28 115.06,106.12 Q113.5,104.96 111.5,104.36 Q109.5,103.76 107.26,103.76 Q103.98,103.76 101.44,104.94 Q98.9,106.12 97.2,108.16 Q95.5,110.2 94.62,112.94 Q93.74,115.68 93.74,118.8 Q93.74,121.92 94.56,124.64 Q95.38,127.36 97.02,129.36 Q98.66,131.36 101.14,132.5 Q103.62,133.64 106.94,133.64 Q112.42,133.64 115.58,130.64 Q118.74,127.64 119.3,122.24 L115.5,122.24 Q115.38,124 114.78,125.52 Q114.18,127.04 113.12,128.14 Q112.06,129.24 110.6,129.86 Q109.14,130.48 107.26,130.48 Q104.7,130.48 102.86,129.52 Q101.02,128.56 99.84,126.94 Q98.66,125.32 98.1,123.14 Q97.54,120.96 97.54,118.52 Q97.54,116.28 98.1,114.2 Q98.66,112.12 99.84,110.5 Q101.02,108.88 102.84,107.92 Q104.66,106.96 107.22,106.96 Q110.22,106.96 112.4,108.48 Q114.58,110 115.22,113.04 z M140.54,112.8 L144.14,112.8 Q144.06,110.44 143.24,108.74 Q142.42,107.04 141,105.92 Q139.58,104.8 137.7,104.28 Q135.82,103.76 133.62,103.76 Q131.66,103.76 129.8,104.26 Q127.94,104.76 126.48,105.78 Q125.02,106.8 124.14,108.38 Q123.26,109.96 123.26,112.12 Q123.26,114.08 124.04,115.38 Q124.82,116.68 126.12,117.5 Q127.42,118.32 129.06,118.82 Q130.7,119.32 132.4,119.7 Q134.1,120.08 135.74,120.44 Q137.38,120.8 138.68,121.38 Q139.98,121.96 140.76,122.88 Q141.54,123.8 141.54,125.28 Q141.54,126.84 140.9,127.84 Q140.26,128.84 139.22,129.42 Q138.18,130 136.88,130.24 Q135.58,130.48 134.3,130.48 Q132.7,130.48 131.18,130.08 Q129.66,129.68 128.52,128.84 Q127.38,128 126.68,126.7 Q125.98,125.4 125.98,123.6 L122.38,123.6 Q122.38,126.2 123.32,128.1 Q124.26,130 125.88,131.22 Q127.5,132.44 129.64,133.04 Q131.78,133.64 134.18,133.64 Q136.14,133.64 138.12,133.18 Q140.1,132.72 141.7,131.7 Q143.3,130.68 144.32,129.06 Q145.34,127.44 145.34,125.16 Q145.34,123.04 144.56,121.64 Q143.78,120.24 142.48,119.32 Q141.18,118.4 139.54,117.86 Q137.9,117.32 136.2,116.92 Q134.5,116.52 132.86,116.18 Q131.22,115.84 129.92,115.32 Q128.62,114.8 127.84,113.98 Q127.06,113.16 127.06,111.84 Q127.06,110.44 127.6,109.5 Q128.14,108.56 129.04,108 Q129.94,107.44 131.1,107.2 Q132.26,106.96 133.46,106.96 Q136.42,106.96 138.32,108.34 Q140.22,109.72 140.54,112.8 z M166.46,112.8 L170.06,112.8 Q169.98,110.44 169.16,108.74 Q168.34,107.04 166.92,105.92 Q165.5,104.8 163.62,104.28 Q161.74,103.76 159.54,103.76 Q157.58,103.76 155.72,104.26 Q153.86,104.76 152.4,105.78 Q150.94,106.8 150.06,108.38 Q149.18,109.96 149.18,112.12 Q149.18,114.08 149.96,115.38 Q150.74,116.68 152.04,117.5 Q153.34,118.32 154.98,118.82 Q156.62,119.32 158.32,119.7 Q160.02,120.08 161.66,120.44 Q163.3,120.8 164.6,121.38 Q165.9,121.96 166.68,122.88 Q167.46,123.8 167.46,125.28 Q167.46,126.84 166.82,127.84 Q166.18,128.84 165.14,129.42 Q164.1,130 162.8,130.24 Q161.5,130.48 160.22,130.48 Q158.62,130.48 157.1,130.08 Q155.58,129.68 154.44,128.84 Q153.3,128 152.6,126.7 Q151.9,125.4 151.9,123.6 L148.3,123.6 Q148.3,126.2 149.24,128.1 Q150.18,130 151.8,131.22 Q153.42,132.44 155.56,133.04 Q157.7,133.64 160.1,133.64 Q162.06,133.64 164.04,133.18 Q166.02,132.72 167.62,131.7 Q169.22,130.68 170.24,129.06 Q171.26,127.44 171.26,125.16 Q171.26,123.04 170.48,121.64 Q169.7,120.24 168.4,119.32 Q167.1,118.4 165.46,117.86 Q163.82,117.32 162.12,116.92 Q160.42,116.52 158.78,116.18 Q157.14,115.84 155.84,115.32 Q154.54,114.8 153.76,113.98 Q152.98,113.16 152.98,111.84 Q152.98,110.44 153.52,109.5 Q154.06,108.56 154.96,108 Q155.86,107.44 157.02,107.2 Q158.18,106.96 159.38,106.96 Q162.34,106.96 164.24,108.34 Q166.14,109.72 166.46,112.8 z M181.46,116.8 L181.46,119.68 Q182.42,119.56 183.5,119.56 Q184.78,119.56 185.88,119.9 Q186.98,120.24 187.78,120.94 Q188.58,121.64 189.06,122.66 Q189.54,123.68 189.54,125 Q189.54,126.28 189.04,127.3 Q188.54,128.32 187.7,129.02 Q186.86,129.72 185.74,130.1 Q184.62,130.48 183.38,130.48 Q180.46,130.48 178.94,128.74 Q177.42,127 177.34,124.24 L173.94,124.24 Q173.9,126.44 174.56,128.16 Q175.22,129.88 176.46,131.06 Q177.7,132.24 179.46,132.84 Q181.22,133.44 183.38,133.44 Q185.38,133.44 187.16,132.9 Q188.94,132.36 190.26,131.28 Q191.58,130.2 192.36,128.58 Q193.14,126.96 193.14,124.84 Q193.14,122.28 191.88,120.4 Q190.62,118.52 188.02,117.96 L188.02,117.88 Q189.7,117.12 190.82,115.64 Q191.94,114.16 191.94,112.24 Q191.94,110.28 191.28,108.84 Q190.62,107.4 189.46,106.48 Q188.3,105.56 186.72,105.1 Q185.14,104.64 183.3,104.64 Q181.18,104.64 179.56,105.32 Q177.94,106 176.86,107.2 Q175.78,108.4 175.2,110.08 Q174.62,111.76 174.54,113.8 L177.94,113.8 Q177.94,112.56 178.26,111.44 Q178.58,110.32 179.24,109.48 Q179.9,108.64 180.92,108.14 Q181.94,107.64 183.3,107.64 Q185.46,107.64 186.9,108.78 Q188.34,109.92 188.34,112.2 Q188.34,113.32 187.9,114.2 Q187.46,115.08 186.72,115.66 Q185.98,116.24 185,116.54 Q184.02,116.84 182.94,116.84 L182.22,116.84 Q182.02,116.84 181.82,116.84 Q181.66,116.84 181.46,116.8 z" fill="#FFFFFF"/>
        </g>
      </g>
      <g>
        <g>
          <path d="M389,205 C340.123,205 300.5,165.601 300.5,117 C300.5,68.399 340.123,29 389,29 C437.877,29 477.5,68.399 477.5,117 C477.5,165.601 437.877,205 389,205 z" fill="#E64C66"/>
          <path d="M389,205 C340.123,205 300.5,165.601 300.5,117 C300.5,68.399 340.123,29 389,29 C437.877,29 477.5,68.399 477.5,117 C477.5,165.601 437.877,205 389,205 z" fill-opacity="0" stroke="#E64C66" stroke-width="1"/>
        </g>
        <g>
          <text transform="matrix(1, 0, 0, 1, 388.5, 117.5)">
            <tspan x="-65.58" y="13" font-family="HelveticaNeue" font-size="40" fill="#FFFFFF">HTML5</tspan>
          </text>
          <path d="M326.04,101.94 L326.04,130.5 L329.84,130.5 L329.84,117.42 L344.88,117.42 L344.88,130.5 L348.68,130.5 L348.68,101.94 L344.88,101.94 L344.88,114.22 L329.84,114.22 L329.84,101.94 z M361.4,105.14 L361.4,130.5 L365.2,130.5 L365.2,105.14 L374.72,105.14 L374.72,101.94 L351.88,101.94 L351.88,105.14 z M377.96,101.94 L377.96,130.5 L381.56,130.5 L381.56,106.74 L381.64,106.74 L390.56,130.5 L393.8,130.5 L402.72,106.74 L402.8,106.74 L402.8,130.5 L406.4,130.5 L406.4,101.94 L401.2,101.94 L392.16,125.94 L383.16,101.94 z M412.72,101.94 L412.72,130.5 L431.64,130.5 L431.64,127.3 L416.52,127.3 L416.52,101.94 z M450.64,105.62 L450.64,102.62 L436.64,102.62 L434,117.34 L436.92,117.5 Q437.92,116.3 439.22,115.56 Q440.52,114.82 442.2,114.82 Q443.64,114.82 444.82,115.3 Q446,115.78 446.84,116.64 Q447.68,117.5 448.14,118.68 Q448.6,119.86 448.6,121.26 Q448.6,122.94 448.12,124.2 Q447.64,125.46 446.82,126.3 Q446,127.14 444.9,127.56 Q443.8,127.98 442.6,127.98 Q441.32,127.98 440.26,127.6 Q439.2,127.22 438.42,126.52 Q437.64,125.82 437.18,124.88 Q436.72,123.94 436.64,122.86 L433.24,122.86 Q433.28,124.78 434,126.3 Q434.72,127.82 435.96,128.84 Q437.2,129.86 438.82,130.4 Q440.44,130.94 442.28,130.94 Q444.76,130.94 446.62,130.16 Q448.48,129.38 449.72,128.06 Q450.96,126.74 451.58,125.04 Q452.2,123.34 452.2,121.54 Q452.2,119.1 451.48,117.28 Q450.76,115.46 449.52,114.24 Q448.28,113.02 446.6,112.42 Q444.92,111.82 443.04,111.82 Q441.6,111.82 440.14,112.32 Q438.68,112.82 437.76,113.86 L437.68,113.78 L439.2,105.62 z" fill="#FFFFFF"/>
        </g>
      </g>
      <g>
        <g>
          <path d="M880,205 C831.123,205 791.5,165.601 791.5,117 C791.5,68.399 831.123,29 880,29 C928.877,29 968.5,68.399 968.5,117 C968.5,165.601 928.877,205 880,205 z" fill="#2D3E50"/>
          <path d="M880,205 C831.123,205 791.5,165.601 791.5,117 C791.5,68.399 831.123,29 880,29 C928.877,29 968.5,68.399 968.5,117 C968.5,165.601 928.877,205 880,205 z" fill-opacity="0" stroke="#2D3E50" stroke-width="1"/>
        </g>
        <g>
          <text transform="matrix(1, 0, 0, 1, 879.5, 117.5)">
            <tspan x="-39.28" y="13" font-family="HelveticaNeue" font-size="40" fill="#FFFFFF">SQL</tspan>
          </text>
          <path d="M859.86,110.3 L863.46,110.3 Q863.38,107.94 862.56,106.24 Q861.74,104.54 860.32,103.42 Q858.9,102.3 857.02,101.78 Q855.14,101.26 852.94,101.26 Q850.98,101.26 849.12,101.76 Q847.26,102.26 845.8,103.28 Q844.34,104.3 843.46,105.88 Q842.58,107.46 842.58,109.62 Q842.58,111.58 843.36,112.88 Q844.14,114.18 845.44,115 Q846.74,115.82 848.38,116.32 Q850.02,116.82 851.72,117.2 Q853.42,117.58 855.06,117.94 Q856.7,118.3 858,118.88 Q859.3,119.46 860.08,120.38 Q860.86,121.3 860.86,122.78 Q860.86,124.34 860.22,125.34 Q859.58,126.34 858.54,126.92 Q857.5,127.5 856.2,127.74 Q854.9,127.98 853.62,127.98 Q852.02,127.98 850.5,127.58 Q848.98,127.18 847.84,126.34 Q846.7,125.5 846,124.2 Q845.3,122.9 845.3,121.1 L841.7,121.1 Q841.7,123.7 842.64,125.6 Q843.58,127.5 845.2,128.72 Q846.82,129.94 848.96,130.54 Q851.1,131.14 853.5,131.14 Q855.46,131.14 857.44,130.68 Q859.42,130.22 861.02,129.2 Q862.62,128.18 863.64,126.56 Q864.66,124.94 864.66,122.66 Q864.66,120.54 863.88,119.14 Q863.1,117.74 861.8,116.82 Q860.5,115.9 858.86,115.36 Q857.22,114.82 855.52,114.42 Q853.82,114.02 852.18,113.68 Q850.54,113.34 849.24,112.82 Q847.94,112.3 847.16,111.48 Q846.38,110.66 846.38,109.34 Q846.38,107.94 846.92,107 Q847.46,106.06 848.36,105.5 Q849.26,104.94 850.42,104.7 Q851.58,104.46 852.78,104.46 Q855.74,104.46 857.64,105.84 Q859.54,107.22 859.86,110.3 z M884.14,122.34 L882.14,124.66 L885.3,127.18 Q883.38,127.98 881.34,127.98 Q878.74,127.98 876.86,126.96 Q874.98,125.94 873.78,124.26 Q872.58,122.58 872.02,120.48 Q871.46,118.38 871.46,116.22 Q871.46,114.06 872.02,111.96 Q872.58,109.86 873.78,108.18 Q874.98,106.5 876.86,105.48 Q878.74,104.46 881.34,104.46 Q883.94,104.46 885.82,105.48 Q887.7,106.5 888.9,108.18 Q890.1,109.86 890.66,111.96 Q891.22,114.06 891.22,116.22 Q891.22,118.86 890.42,121.28 Q889.62,123.7 887.94,125.38 z M892.54,132.94 L894.46,130.54 L890.7,127.58 Q892.86,125.42 893.94,122.46 Q895.02,119.5 895.02,116.22 Q895.02,113.3 894.16,110.6 Q893.3,107.9 891.58,105.82 Q889.86,103.74 887.3,102.5 Q884.74,101.26 881.34,101.26 Q877.94,101.26 875.38,102.5 Q872.82,103.74 871.1,105.82 Q869.38,107.9 868.52,110.6 Q867.66,113.3 867.66,116.22 Q867.66,119.14 868.52,121.84 Q869.38,124.54 871.1,126.62 Q872.82,128.7 875.38,129.92 Q877.94,131.14 881.34,131.14 Q885.3,131.14 888.18,129.46 z M899.66,101.94 L899.66,130.5 L918.58,130.5 L918.58,127.3 L903.46,127.3 L903.46,101.94 z" fill="#FFFFFF"/>
        </g>
      </g>
    </g>
    <g>
      <g>
        <path d="M275.75,422 C226.873,422 187.25,382.601 187.25,334 C187.25,285.399 226.873,246 275.75,246 C324.627,246 364.25,285.399 364.25,334 C364.25,382.601 324.627,422 275.75,422 z" fill="#F0D31A"/>
        <path d="M275.75,422 C226.873,422 187.25,382.601 187.25,334 C187.25,285.399 226.873,246 275.75,246 C324.627,246 364.25,285.399 364.25,334 C364.25,382.601 324.627,422 275.75,422 z" fill-opacity="0" stroke="#E9E023" stroke-width="1"/>
      </g>
      <text transform="matrix(1, 0, 0, 1, 275.25, 335.5)">
        <tspan x="-47.04" y="14" font-family="HelveticaNeue-Medium" font-size="40" fill="#000000">RWD</tspan>
      </text>
    </g>
    <g>
      <g>
        <path d="M748.25,422 C699.373,422 659.75,382.601 659.75,334 C659.75,285.399 699.373,246 748.25,246 C797.127,246 836.75,285.399 836.75,334 C836.75,382.601 797.127,422 748.25,422 z" fill="#298AB3"/>
        <path d="M748.25,422 C699.373,422 659.75,382.601 659.75,334 C659.75,285.399 699.373,246 748.25,246 C797.127,246 836.75,285.399 836.75,334 C836.75,382.601 797.127,422 748.25,422 z" fill-opacity="0" stroke="#298AB3" stroke-width="1"/>
      </g>
      <text transform="matrix(1, 0, 0, 1, 747.75, 333.5)">
        <tspan x="-60.76" y="13" font-family="HelveticaNeue" font-size="40" fill="#FFFFFF">Jquery</tspan>
      </text>
    </g>
    <g>
      <path d="M512.5,422 C463.623,422 424,382.601 424,334 C424,285.399 463.623,246 512.5,246 C561.377,246 601,285.399 601,334 C601,382.601 561.377,422 512.5,422 z" fill="#FD5947"/>
      <path d="M512.5,422 C463.623,422 424,382.601 424,334 C424,285.399 463.623,246 512.5,246 C561.377,246 601,285.399 601,334 C601,382.601 561.377,422 512.5,422 z" fill-opacity="0" stroke="#FD5947" stroke-width="1"/>
    </g>
    <g>
      <text transform="matrix(1, 0, 0, 1, 512, 333.5)">
        <tspan x="-82.967" y="9.5" font-family="HelveticaNeue" font-size="35" fill="#FFFFFF">JavaScript</tspan>
      </text>
      <path d="M444.467,336.77 L444.467,318.01 L441.142,318.01 L441.142,336.28 Q441.142,338.345 440.285,339.57 Q439.427,340.795 437.152,340.795 Q435.927,340.795 435.14,340.427 Q434.353,340.06 433.915,339.395 Q433.478,338.73 433.302,337.82 Q433.128,336.91 433.128,335.825 L433.128,334.775 L429.802,334.775 L429.802,336.315 Q429.802,339.885 431.693,341.723 Q433.582,343.56 437.082,343.56 Q439.182,343.56 440.6,342.983 Q442.017,342.405 442.875,341.443 Q443.733,340.48 444.1,339.255 Q444.467,338.03 444.467,336.77 z M465.467,342.93 L465.467,340.62 Q464.943,340.795 464.557,340.795 Q463.858,340.795 463.735,340.305 Q463.612,339.815 463.612,338.765 L463.612,329.455 Q463.612,327.88 463.017,326.9 Q462.422,325.92 461.443,325.378 Q460.462,324.835 459.255,324.66 Q458.047,324.485 456.823,324.485 Q455.318,324.485 453.953,324.8 Q452.587,325.115 451.538,325.832 Q450.487,326.55 449.858,327.705 Q449.228,328.86 449.158,330.54 L452.133,330.54 Q452.237,328.545 453.497,327.828 Q454.758,327.11 456.647,327.11 Q457.348,327.11 458.065,327.215 Q458.783,327.32 459.36,327.635 Q459.938,327.95 460.305,328.545 Q460.672,329.14 460.672,330.12 Q460.672,330.96 460.182,331.397 Q459.693,331.835 458.853,332.062 Q458.013,332.29 456.91,332.413 Q455.807,332.535 454.582,332.78 Q453.427,332.99 452.325,333.305 Q451.223,333.62 450.365,334.233 Q449.508,334.845 448.983,335.825 Q448.457,336.805 448.457,338.345 Q448.457,339.71 448.93,340.672 Q449.402,341.635 450.225,342.247 Q451.047,342.86 452.133,343.122 Q453.217,343.385 454.443,343.385 Q456.332,343.385 457.96,342.737 Q459.587,342.09 460.812,340.62 Q460.812,342.09 461.495,342.737 Q462.177,343.385 463.332,343.385 Q464.698,343.385 465.467,342.93 z M460.638,333.655 L460.638,336.7 Q460.638,337.33 460.323,338.047 Q460.008,338.765 459.342,339.378 Q458.677,339.99 457.628,340.392 Q456.578,340.795 455.108,340.795 Q454.443,340.795 453.795,340.655 Q453.147,340.515 452.675,340.2 Q452.203,339.885 451.905,339.378 Q451.608,338.87 451.608,338.135 Q451.608,337.015 452.115,336.367 Q452.622,335.72 453.427,335.37 Q454.233,335.02 455.247,334.862 Q456.263,334.705 457.26,334.582 Q458.258,334.46 459.168,334.267 Q460.078,334.075 460.638,333.655 z M476.388,343 L483.003,324.905 L479.888,324.905 L474.953,339.99 L474.883,339.99 L469.807,324.905 L466.483,324.905 L473.203,343 z M501.763,342.93 L501.763,340.62 Q501.237,340.795 500.853,340.795 Q500.152,340.795 500.03,340.305 Q499.908,339.815 499.908,338.765 L499.908,329.455 Q499.908,327.88 499.312,326.9 Q498.717,325.92 497.737,325.378 Q496.758,324.835 495.55,324.66 Q494.342,324.485 493.117,324.485 Q491.612,324.485 490.247,324.8 Q488.883,325.115 487.832,325.832 Q486.783,326.55 486.152,327.705 Q485.522,328.86 485.453,330.54 L488.427,330.54 Q488.533,328.545 489.793,327.828 Q491.052,327.11 492.943,327.11 Q493.642,327.11 494.36,327.215 Q495.078,327.32 495.655,327.635 Q496.233,327.95 496.6,328.545 Q496.967,329.14 496.967,330.12 Q496.967,330.96 496.478,331.397 Q495.987,331.835 495.147,332.062 Q494.307,332.29 493.205,332.413 Q492.103,332.535 490.878,332.78 Q489.723,332.99 488.62,333.305 Q487.517,333.62 486.66,334.233 Q485.802,334.845 485.277,335.825 Q484.753,336.805 484.753,338.345 Q484.753,339.71 485.225,340.672 Q485.698,341.635 486.52,342.247 Q487.342,342.86 488.427,343.122 Q489.513,343.385 490.737,343.385 Q492.628,343.385 494.255,342.737 Q495.883,342.09 497.108,340.62 Q497.108,342.09 497.79,342.737 Q498.473,343.385 499.628,343.385 Q500.992,343.385 501.763,342.93 z M496.932,333.655 L496.932,336.7 Q496.932,337.33 496.617,338.047 Q496.302,338.765 495.638,339.378 Q494.973,339.99 493.922,340.392 Q492.872,340.795 491.402,340.795 Q490.737,340.795 490.09,340.655 Q489.443,340.515 488.97,340.2 Q488.497,339.885 488.2,339.378 Q487.902,338.87 487.902,338.135 Q487.902,337.015 488.41,336.367 Q488.918,335.72 489.723,335.37 Q490.527,335.02 491.543,334.862 Q492.557,334.705 493.555,334.582 Q494.552,334.46 495.462,334.267 Q496.372,334.075 496.932,333.655 z M519.472,325.325 L522.622,325.325 Q522.552,323.26 521.835,321.772 Q521.117,320.285 519.875,319.305 Q518.633,318.325 516.987,317.87 Q515.343,317.415 513.417,317.415 Q511.703,317.415 510.075,317.853 Q508.448,318.29 507.17,319.182 Q505.892,320.075 505.122,321.457 Q504.353,322.84 504.353,324.73 Q504.353,326.445 505.035,327.582 Q505.717,328.72 506.855,329.438 Q507.992,330.155 509.427,330.592 Q510.862,331.03 512.35,331.362 Q513.838,331.695 515.273,332.01 Q516.708,332.325 517.845,332.832 Q518.982,333.34 519.665,334.145 Q520.347,334.95 520.347,336.245 Q520.347,337.61 519.787,338.485 Q519.227,339.36 518.318,339.867 Q517.407,340.375 516.27,340.585 Q515.133,340.795 514.013,340.795 Q512.612,340.795 511.283,340.445 Q509.953,340.095 508.955,339.36 Q507.957,338.625 507.345,337.487 Q506.733,336.35 506.733,334.775 L503.582,334.775 Q503.582,337.05 504.405,338.712 Q505.228,340.375 506.645,341.443 Q508.062,342.51 509.935,343.035 Q511.807,343.56 513.907,343.56 Q515.622,343.56 517.355,343.158 Q519.088,342.755 520.487,341.862 Q521.888,340.97 522.78,339.552 Q523.672,338.135 523.672,336.14 Q523.672,334.285 522.99,333.06 Q522.307,331.835 521.17,331.03 Q520.032,330.225 518.597,329.753 Q517.162,329.28 515.675,328.93 Q514.188,328.58 512.753,328.283 Q511.318,327.985 510.18,327.53 Q509.043,327.075 508.36,326.358 Q507.677,325.64 507.677,324.485 Q507.677,323.26 508.15,322.438 Q508.622,321.615 509.41,321.125 Q510.198,320.635 511.212,320.425 Q512.227,320.215 513.278,320.215 Q515.867,320.215 517.53,321.422 Q519.193,322.63 519.472,325.325 z M539.492,330.715 L542.573,330.715 Q542.398,329.105 541.732,327.932 Q541.068,326.76 540.035,325.99 Q539.003,325.22 537.655,324.853 Q536.307,324.485 534.768,324.485 Q532.633,324.485 531.023,325.237 Q529.412,325.99 528.345,327.302 Q527.278,328.615 526.753,330.383 Q526.227,332.15 526.227,334.18 Q526.227,336.21 526.77,337.908 Q527.312,339.605 528.38,340.83 Q529.448,342.055 531.04,342.72 Q532.633,343.385 534.698,343.385 Q538.162,343.385 540.175,341.565 Q542.188,339.745 542.677,336.385 L539.633,336.385 Q539.352,338.485 538.11,339.64 Q536.867,340.795 534.662,340.795 Q533.263,340.795 532.247,340.235 Q531.232,339.675 530.602,338.747 Q529.972,337.82 529.675,336.63 Q529.378,335.44 529.378,334.18 Q529.378,332.815 529.657,331.538 Q529.938,330.26 530.585,329.28 Q531.232,328.3 532.318,327.705 Q533.403,327.11 535.013,327.11 Q536.903,327.11 538.023,328.055 Q539.143,329 539.492,330.715 z M545.898,324.905 L545.898,343 L548.872,343 L548.872,334.95 Q548.872,333.2 549.222,331.853 Q549.573,330.505 550.343,329.56 Q551.112,328.615 552.372,328.125 Q553.633,327.635 555.417,327.635 L555.417,324.485 Q553.003,324.415 551.427,325.465 Q549.852,326.515 548.768,328.72 L548.698,328.72 L548.698,324.905 z M560.807,321.65 L560.807,318.01 L557.833,318.01 L557.833,321.65 z M557.833,324.905 L557.833,343 L560.807,343 L560.807,324.905 z M565.532,324.905 L565.532,349.895 L568.508,349.895 L568.508,340.585 L568.578,340.585 Q569.068,341.39 569.785,341.932 Q570.503,342.475 571.307,342.79 Q572.112,343.105 572.935,343.245 Q573.758,343.385 574.422,343.385 Q576.487,343.385 578.045,342.65 Q579.602,341.915 580.635,340.638 Q581.667,339.36 582.175,337.645 Q582.682,335.93 582.682,334.005 Q582.682,332.08 582.157,330.365 Q581.633,328.65 580.6,327.337 Q579.568,326.025 578.01,325.255 Q576.453,324.485 574.352,324.485 Q572.463,324.485 570.888,325.168 Q569.312,325.85 568.578,327.355 L568.508,327.355 L568.508,324.905 z M579.532,333.795 Q579.532,335.125 579.253,336.385 Q578.972,337.645 578.343,338.625 Q577.713,339.605 576.68,340.2 Q575.648,340.795 574.107,340.795 Q572.568,340.795 571.482,340.217 Q570.398,339.64 569.715,338.695 Q569.032,337.75 568.718,336.508 Q568.403,335.265 568.403,333.935 Q568.403,332.675 568.7,331.45 Q568.997,330.225 569.662,329.263 Q570.328,328.3 571.378,327.705 Q572.427,327.11 573.932,327.11 Q575.367,327.11 576.435,327.67 Q577.503,328.23 578.185,329.175 Q578.867,330.12 579.2,331.328 Q579.532,332.535 579.532,333.795 z M590.312,324.905 L590.312,319.48 L587.338,319.48 L587.338,324.905 L584.258,324.905 L584.258,327.53 L587.338,327.53 L587.338,339.045 Q587.338,340.305 587.583,341.075 Q587.828,341.845 588.335,342.265 Q588.843,342.685 589.665,342.842 Q590.487,343 591.643,343 L593.917,343 L593.917,340.375 L592.552,340.375 Q591.852,340.375 591.415,340.323 Q590.977,340.27 590.732,340.095 Q590.487,339.92 590.4,339.605 Q590.312,339.29 590.312,338.765 L590.312,327.53 L593.917,327.53 L593.917,324.905 z" fill="#FFFFFF"/>
    </g>
  </g>
</svg>
